<svg width="24" height="24" viewBox="0 0 24 24" fill="none" xmlns="http://www.w3.org/2000/svg">
<path fill-rule="evenodd" clip-rule="evenodd" d="M5.6723 4.25809C7.39641 2.84695 9.5999 2 12 2C17.52 2 22 6.48 22 12C22 14.4001 21.153 16.6036 19.7419 18.3277L19.7782 18.364L18.364 19.7782L18.3277 19.7419C16.6036 21.153 14.4001 22 12 22C6.48 22 2 17.52 2 12C2 9.5999 2.84695 7.39641 4.25809 5.6723L4.22183 5.63604L5.63604 4.22183L5.6723 4.25809ZM5.67953 7.09374C4.62674 8.4483 4 10.1506 4 12C4 13.85 4.63 15.55 5.69 16.9L10.5879 12.0021L5.67953 7.09374ZM12.0021 10.5879L7.09374 5.67953C8.4483 4.62674 10.1506 4 12 4C13.85 4 15.55 4.63 16.9 5.69L12.0021 10.5879ZM11.9979 13.4121L7.1 18.31C8.45 19.37 10.15 20 12 20C13.8494 20 15.5517 19.3733 16.9063 18.3205L11.9979 13.4121ZM18.3205 16.9063L13.4121 11.9979L18.31 7.1C19.37 8.45 20 10.15 20 12C20 13.8494 19.3733 15.5517 18.3205 16.9063Z" fill="#FF003C"/>
</svg>
