<svg width="24" height="24" viewBox="0 0 24 24" fill="none" xmlns="http://www.w3.org/2000/svg">
<path fill-rule="evenodd" clip-rule="evenodd" d="M6.0348 10.5087C4.80447 9.27838 4.80447 7.26512 6.0348 6.0348C7.26512 4.80447 9.27838 4.80447 10.5087 6.0348L13.4913 9.0174L14.9826 7.5261L12 4.5435C9.94201 2.4855 6.60149 2.4855 4.5435 4.5435C2.4855 6.60149 2.4855 9.94201 4.5435 12L7.5261 14.9826L9.0174 13.4913L6.0348 10.5087ZM16.4739 9.0174L14.9826 10.5087L17.9652 13.4913C19.1955 14.7216 19.1955 16.7349 17.9652 17.9652C16.7349 19.1955 14.7216 19.1955 13.4913 17.9652L10.5087 14.9826L9.0174 16.4739L12 19.4565C14.058 21.5145 17.3985 21.5145 19.4565 19.4565C21.5145 17.3985 21.5145 14.058 19.4565 12L16.4739 9.0174ZM15.7283 14.237L9.76305 8.27175L8.27175 9.76305L14.237 15.7283L15.7283 14.237Z" fill="#222222"/>
</svg>

