<svg width="24" height="24" viewBox="0 0 24 24" fill="none" xmlns="http://www.w3.org/2000/svg">
<path fill-rule="evenodd" clip-rule="evenodd" d="M7 4H8V4.82L10 6.85V4H14V9C14 10.12 14.61 11.45 15 12C15.39 12.55 16.36 13.55 17.22 13.87C18.08 14.13 19 14 19 14V12C17.34 12 16 10.66 16 9V4H17C17.55 4 18 3.55 18 3C18 2.45 17.55 2 17 2H7C6.45 2 6 2.45 6 3C6 3.55 6.45 4 7 4Z" fill="#222222"/>
<path fill-rule="evenodd" clip-rule="evenodd" d="M3.12134 4.36083L4.54686 2.95801L19.9249 18.5973L18.4994 20.0001L12.9797 14.3867V21L11.9797 22L10.9797 21V14H5.00972V12C6.56311 12 7.83628 10.8266 7.99341 9.31566L3.12134 4.36083ZM9.6122 10.9619C9.4554 11.3291 9.25369 11.6773 9.00972 12H10.633L9.6122 10.9619Z" fill="#222222"/>
</svg>

