<svg width="24" height="24" viewBox="0 0 24 24" fill="none" xmlns="http://www.w3.org/2000/svg">
<path fill-rule="evenodd" clip-rule="evenodd" d="M13.6554 14.6944L11.0842 17.7586C10.0236 19.0226 8.12171 19.189 6.85774 18.1284C5.59377 17.0678 5.42737 15.1659 6.48797 13.9019L9.05912 10.8377L7.52703 9.55213L4.95588 12.6163C3.18179 14.7306 3.45788 17.8864 5.57217 19.6605C7.68645 21.4346 10.8422 21.1585 12.6163 19.0442L15.1875 15.98L13.6554 14.6944ZM11.3838 4.95587L8.81261 8.02004L10.3447 9.30562L12.9158 6.24144C13.9764 4.97747 15.8784 4.81107 17.1423 5.87167C18.4063 6.93227 18.5727 8.83419 17.5121 10.0982L14.941 13.1623L16.4731 14.4479L19.0442 11.3837C20.8183 9.26946 20.5422 6.11368 18.4279 4.33958C16.3136 2.56549 13.1579 2.84158 11.3838 4.95587ZM13.8051 8.29306L8.66285 14.4214L10.1949 15.707L15.3372 9.57864L13.8051 8.29306Z" fill="#222222"/>
</svg>
